<svg xmlns="http://www.w3.org/2000/svg" viewBox="0 0 512 512" width="512" height="512">
  <defs>
    <linearGradient id="sparrowGrad" x1="0%" y1="100%" x2="100%" y2="0%">
      <stop offset="0%" stop-color="#ea580c" />
      <stop offset="100%" stop-color="#f59e0b" />
    </linearGradient>
    <filter id="glow" x="-20%" y="-20%" width="140%" height="140%">
      <feDropShadow dx="0" dy="12" stdDeviation="16" flood-color="#ff6b00" flood-opacity="0.35"/>
    </filter>
  </defs>

  <!-- Background Plate -->
  <rect x="32" y="32" width="448" height="448" rx="112" fill="url(#sparrowGrad)" filter="url(#glow)" />
  
  <!-- Bird Icon -->
  <g fill="none" stroke="#ffffff" stroke-width="24" stroke-linecap="round" stroke-linejoin="round" transform="translate(116, 116) scale(11.6)">
    <path d="M16 7.37d0 0 0 0-16 0" />
    <path d="M16 3.01A8.99 8.99 0 0 0 7 12c0 3.04 1.5 5.72 3.8 7.34" />
    <path d="M14 12c-2.48 0-4.5 2.02-4.5 4.5S11.52 21 14 21" />
    <path d="M22 13h-4.3c-2.3 0-4.3 1.3-5.2 3.3" />
    <path d="M19 10l2-2" />
  </g>
</svg>